<?xml version="1.0" standalone="no"?>
<!DOCTYPE svg PUBLIC "-//W3C//DTD SVG 20010904//EN"
 "http://www.w3.org/TR/2001/REC-SVG-20010904/DTD/svg10.dtd">
<svg version="1.0" xmlns="http://www.w3.org/2000/svg"
 width="243.000000pt" height="219.000000pt" viewBox="0 0 243.000000 219.000000"
 preserveAspectRatio="xMidYMid meet">

<g transform="translate(0.000000,219.000000) scale(0.100000,-0.100000)"
fill="#000000" stroke="none">
<path d="M0 1095 l0 -1095 1215 0 1215 0 0 1095 0 1095 -1215 0 -1215 0 0
-1095z m1395 215 c83 -48 173 -101 201 -117 l50 -30 235 137 234 137 3 -279
c1 -153 1 -403 0 -556 l-3 -278 -127 74 -128 75 0 248 c0 137 -2 249 -4 249
-3 0 -50 -27 -107 -60 -79 -46 -106 -57 -120 -49 -10 5 -170 98 -356 207 -186
109 -476 279 -645 378 l-308 179 0 156 0 157 463 -270 c254 -149 530 -310 612
-358z m725 457 l0 -153 -236 -138 -235 -138 -92 53 c-145 83 -170 100 -161
109 12 12 707 419 717 420 4 0 7 -69 7 -153z m-1310 -603 c234 -136 483 -281
553 -322 104 -61 126 -77 115 -87 -7 -7 -65 -43 -130 -80 -105 -60 -119 -65
-140 -54 -12 6 -157 90 -320 185 -164 96 -300 174 -303 174 -3 0 -5 -114 -5
-254 l0 -254 -130 -75 -130 -75 0 565 0 565 33 -20 c17 -11 223 -131 457 -268z"/>
</g>
</svg>
